<?xml version="1.0" encoding="UTF-8" standalone="no"?>
<svg
   width="587.4624"
   height="110"
   viewBox="0 0 587.4624 110"
   data-bbox="21.180884212795746 124.63483121084404 469.63823157440845 131.36516878915597"
   style="overflow:visible"
   version="1.1"
   id="svg4"
   sodipodi:docname="voltguard-small.svg"
   inkscape:version="1.4 (e7c3feb1, 2024-10-09)"
   xmlns:inkscape="http://www.inkscape.org/namespaces/inkscape"
   xmlns:sodipodi="http://sodipodi.sourceforge.net/DTD/sodipodi-0.dtd"
   xmlns="http://www.w3.org/2000/svg"
   xmlns:svg="http://www.w3.org/2000/svg">
  <defs
     id="defs4" />
  <sodipodi:namedview
     id="namedview4"
     pagecolor="#ffffff"
     bordercolor="#999999"
     borderopacity="1"
     inkscape:showpageshadow="0"
     inkscape:pageopacity="0"
     inkscape:pagecheckerboard="0"
     inkscape:deskcolor="#d1d1d1"
     inkscape:zoom="1.0368856"
     inkscape:cx="251.71532"
     inkscape:cy="93.549373"
     inkscape:window-width="1440"
     inkscape:window-height="847"
     inkscape:window-x="0"
     inkscape:window-y="25"
     inkscape:window-maximized="0"
     inkscape:current-layer="svg4" />
  <g
     transform="matrix(0.90609674,0,0,0.58172055,-117.44479,-113.67155)"
     data-uid="o-9c72585d93544f3f964aa34376675d68"
     id="g2"
     style="overflow:visible">
    <path
       class="st1"
       d="m 203.1,267.4 c -0.5,-1.4 -0.6,-4.9 1.5,-8.4 l 53,-88.9 c 0.7,-1.1 1.3,-1.8 1.7,-2.2 0.2,0.7 0.3,2 -0.1,3.9 l -14.6,73.6 13.4,-5.4 13,-65.9 c 1.9,-9.8 -2.3,-16.1 -7.4,-18 -4.5,-1.7 -11.5,-0.7 -16.5,7.8 l -53,88.9 c -4.1,6.8 -4.6,15.2 -1.4,20.9 2.1,3.7 5.6,5.8 9.6,5.8 h 26 l 2.8,-12.1 z"
       fill="#ffab11"
       transform="translate(-61,40)"
       data-uid="o-52325076d28c41df9a2da371d6c0f3d3"
       id="path1" />
    <path
       class="st2"
       d="m 307.2,226.3 c -2.1,-3.7 -5.6,-5.8 -9.6,-5.8 h -25.4 l -2.6,11.7 27.3,0.4 c 0.5,1.4 0.6,4.9 -1.5,8.4 l -53,88.9 c -0.7,1.1 -1.3,1.8 -1.7,2.2 -0.2,-0.7 -0.3,-2 0.1,-3.9 l 14.7,-74.2 -13.4,5.4 -13.1,66.4 c -1.9,9.8 2.3,16.1 7.4,18 1.1,0.4 2.5,0.7 3.9,0.7 4.1,0 8.9,-2.2 12.6,-8.5 l 53,-88.9 c 4,-6.8 4.5,-15.2 1.3,-20.8 z"
       fill="#0c0f27"
       transform="translate(-61,40)"
       data-uid="o-c9f98c0cac8845a4a6b89f4177d950e4"
       id="path2" />
  </g>
  <g
     id="g12"
     transform="translate(101.66348,-240.56278)"
     style="fill:#0c0f27;fill-opacity:1">
    <path
       text="oltGuard"
       fill="#0c0f27"
       space="preserve"
       text-anchor="middle"
       offset="0.5"
       font-scale="contain"
       font-size="42px"
       font-family="'Work Sans'"
       data-fl-textpath=""
       font-style="italic"
       font-weight="700"
       data-uid="o-af053a5c46d24e0f900d725db052e956"
       d="m 99.653018,329.43852 v 0 q -7.13173,0 -12.33977,-2.81516 -5.20805,-2.81516 -8.0232,-7.64785 -2.81516,-4.83269 -2.81516,-10.83836 v 0 q 0,-7.60093 3.14359,-13.84119 3.14359,-6.24027 9.10235,-9.9469 5.95875,-3.70662 14.498062,-3.70662 v 0 q 7.22558,0 12.3867,2.81516 5.16112,2.81515 7.97628,7.60092 2.81516,4.78577 2.81516,10.88528 v 0 q 0,7.50709 -3.14359,13.79428 -3.1436,6.28719 -9.10235,9.99381 -5.95875,3.70663 -14.498072,3.70663 z m 0.18768,-11.26064 v 0 q 2.439812,0 4.457342,-1.54833 2.01753,-1.54834 3.47202,-4.17582 1.4545,-2.62748 2.20521,-5.67724 0.75071,-3.04975 0.75071,-6.14643 v 0 q 0,-2.72132 -0.89147,-4.64501 -0.89146,-1.92369 -2.62748,-3.00284 -1.73601,-1.07914 -4.26965,-1.07914 v 0 q -2.34597,0 -4.363502,1.54834 -2.01753,1.54834 -3.47203,4.1289 -1.4545,2.58056 -2.25213,5.67723 -0.79762,3.09668 -0.79762,6.19335 v 0 q 0,2.62748 0.89146,4.59809 0.89147,1.97061 2.6744,3.04976 1.78294,1.07914 4.22274,1.07914 z m 46.825472,11.1668 v 0 q -8.44548,0 -11.87058,-4.64501 -3.42511,-4.64502 -1.54834,-12.43362 v 0 l 11.72983,-50.57901 h 15.95256 l -11.63599,50.39133 q -0.84455,3.09668 0.28152,4.64501 1.12606,1.54834 4.1289,1.54834 v 0 q 1.12606,0 1.97061,-0.0938 0.84454,-0.0938 1.40758,-0.28151 v 0 l -2.81516,10.32224 q -1.50142,0.65687 -3.28435,0.89147 -1.78294,0.2346 -4.31658,0.2346 z m 37.72312,0 v 0 q -5.81799,0 -9.85305,-2.01753 -4.03506,-2.01753 -5.63032,-6.05259 -1.59525,-4.03506 -0.28151,-9.9469 v 0 l 9.10234,-39.88141 17.07863,-4.50425 -10.22841,44.01031 q -0.93839,3.65971 0.89147,5.48956 1.82985,1.82985 5.39572,1.82985 v 0 q 2.15829,0 3.51895,-0.37535 1.36065,-0.37536 2.39288,-0.93839 v 0 l -0.93839,10.22841 q -2.53364,1.2199 -5.44264,1.68909 -2.90899,0.4692 -6.00567,0.4692 z m 17.17247,-36.40938 h -37.44161 l 2.62748,-11.35448 h 37.44161 z m 29.93452,36.40938 v 0 q -6.94406,0 -12.52746,-3.23743 -5.5834,-3.23744 -8.86775,-9.24311 -3.28435,-6.00567 -3.28435,-14.35731 v 0 q 0,-7.50708 2.25213,-14.12271 2.25212,-6.61562 6.5687,-11.77674 4.31658,-5.16113 10.65068,-8.07012 6.33411,-2.909 14.59191,-2.909 v 0 q 6.85022,0 12.33978,2.20521 5.48955,2.2052 9.10234,6.52178 3.61279,4.31658 4.55117,10.60376 v 0 l -15.20185,2.909 q -0.65687,-4.69193 -3.47203,-7.13173 -2.81516,-2.43981 -7.69477,-2.43981 v 0 q -3.94122,0 -7.17865,1.78294 -3.23743,1.78293 -5.53648,4.97344 -2.29904,3.19051 -3.51895,7.36633 -1.2199,4.17582 -1.2199,8.86775 v 0 q 0,4.87961 1.50142,8.44548 1.50142,3.56586 4.50425,5.48956 3.00284,1.92369 7.50709,1.92369 v 0 q 3.56587,0 6.19335,-1.12607 2.62748,-1.12606 4.31658,-3.14359 1.68909,-2.01753 2.53364,-4.64501 v 0 l 0.75071,-2.06445 h -14.8265 l 2.4398,-10.6976 h 27.58855 l -8.25779,33.03119 h -10.69761 l 3.09668,-14.54499 1.40758,1.50142 q -1.6891,4.50426 -4.31658,7.60093 -2.62748,3.09667 -6.38103,4.69193 -3.75354,1.59526 -8.91466,1.59526 z m 54.05104,0 v 0 q -4.97345,0 -8.44548,-2.15829 -3.47203,-2.15829 -4.92652,-6.14643 -1.4545,-3.98814 -0.2346,-9.52462 v 0 l 7.0379,-29.93452 h 15.95256 l -6.38103,27.58856 q -0.93838,3.84738 0.70379,5.91183 1.64218,2.06445 4.92653,2.06445 v 0 q 2.53364,0 4.41042,-1.17298 1.87677,-1.17299 3.14359,-3.47203 1.26682,-2.29905 2.01753,-5.5834 v 0 l 5.91183,-25.33643 h 15.95257 l -10.88528,46.91931 H 300.5615 l 2.34596,-14.92034 0.84455,1.40758 q -1.97061,6.94406 -6.8033,10.65068 -4.83269,3.70663 -11.40139,3.70663 z m 59.306,0 v 0 q -4.69193,0 -8.39855,-2.20521 -3.70663,-2.20521 -5.818,-6.38103 -2.11137,-4.17581 -2.11137,-10.27532 v 0 q 0,-5.63032 1.59526,-10.97912 1.59526,-5.3488 4.64501,-9.61846 3.04976,-4.26966 7.31941,-6.75638 4.26966,-2.48672 9.61846,-2.48672 v 0 q 3.09667,0 5.95875,1.12606 2.86208,1.12606 4.87961,3.47203 2.01753,2.34596 2.76824,6.19335 v 0 l 2.25213,-9.85306 h 15.95256 l -10.88528,46.91931 H 358.1784 l 1.59526,-8.82083 q -2.25213,4.50425 -6.19335,7.08482 -3.94122,2.58056 -8.72699,2.58056 z m 6.94406,-11.63599 v 0 q 2.34596,0 4.31658,-1.50142 1.97061,-1.50142 3.4251,-3.98814 1.4545,-2.48672 2.25213,-5.44264 0.79763,-2.95592 0.79763,-5.86491 v 0 q 0,-2.62748 -0.89147,-4.55118 -0.89146,-1.92369 -2.48672,-2.95591 -1.59526,-1.03223 -3.84738,-1.03223 v 0 q -2.62748,0 -4.69193,1.54834 -2.06445,1.54834 -3.47203,3.98814 -1.40758,2.43981 -2.15829,5.30188 -0.75071,2.86208 -0.75071,5.48956 v 0 q 0,2.81516 0.84455,4.83269 0.84455,2.01753 2.48672,3.09668 1.64218,1.07914 4.17582,1.07914 z m 47.76385,10.79144 h -15.95256 l 10.88528,-46.91931 h 14.16963 l -2.909,17.07863 -0.65687,-1.59526 q 1.50142,-4.97344 3.94122,-8.63315 2.43981,-3.6597 6.00567,-5.72415 3.56587,-2.06445 8.07013,-2.06445 v 0 q 1.59525,0 2.6744,0.23459 1.07914,0.2346 1.82985,0.60995 v 0 l -3.84738,13.41893 q -0.93839,-0.4692 -2.20521,-0.70379 -1.26682,-0.2346 -3.23743,-0.2346 v 0 q -2.909,0 -5.67724,1.26682 -2.76824,1.26682 -4.83269,4.08198 -2.06445,2.81516 -3.19051,7.50709 v 0 z m 42.97809,0.84455 v 0 q -4.69193,0 -8.39856,-2.20521 -3.70662,-2.20521 -5.81799,-6.38103 -2.11137,-4.17581 -2.11137,-10.27532 v 0 q 0,-5.63032 1.59526,-10.97912 1.59525,-5.3488 4.64501,-9.61846 3.04975,-4.26966 7.31941,-6.75638 4.26966,-2.48672 9.61846,-2.48672 v 0 q 3.09667,0 5.95875,1.12606 2.86208,1.12606 4.87961,3.47203 2.01753,2.34596 2.76824,6.19335 v 0 l 6.85021,-29.74684 h 15.95257 l -15.48337,66.81309 H 455.8644 l 1.59526,-8.82083 q -2.25213,4.50425 -6.19335,7.08482 -3.94122,2.58056 -8.72699,2.58056 z m 6.94406,-11.63599 v 0 q 2.34596,0 4.31657,-1.50142 1.97061,-1.50142 3.42511,-3.98814 1.4545,-2.48672 2.25213,-5.44264 0.79763,-2.95592 0.79763,-5.86491 v 0 q 0,-2.62748 -0.89147,-4.55118 -0.89147,-1.92369 -2.48672,-2.95591 -1.59526,-1.03223 -3.84739,-1.03223 v 0 q -2.62748,0 -4.69193,1.54834 -2.06445,1.54834 -3.47203,3.98814 -1.40758,2.43981 -2.15828,5.30188 -0.75071,2.86208 -0.75071,5.48956 v 0 q 0,2.81516 0.84454,4.83269 0.84455,2.01753 2.48673,3.09668 1.64217,1.07914 4.17582,1.07914 z"
       id="path4"
       style="fill:#0c0f27;fill-opacity:1;stroke-width:2.23425" />
    <path
       text="V"
       fill="#0c0f27"
       space="preserve"
       text-anchor="middle"
       offset="0.5"
       font-scale="contain"
       font-size="42px"
       font-family="'Work Sans'"
       data-fl-textpath=""
       font-style="italic"
       font-weight="700"
       data-uid="o-01a6ef488bcf4c5081eabceb2c5fcc0f"
       d="m 71.149778,267.50503 h 16.51559 l -35.65867,61.93348 h -18.9554 l -6.85022,-61.93348 h 15.38953 l 2.81516,37.06625 0.56303,12.19902 5.63032,-12.10518 z"
       id="path6"
       style="fill:#0c0f27;fill-opacity:1;stroke-width:2.23425" />
  </g>
</svg>
