<?xml version="1.0" encoding="UTF-8" standalone="no"?>
<svg
   viewBox="-67.047619 26.006349 459.59786 257.46112"
   class="mui-1tg5icx"
   version="1.1"
   id="svg12"
   sodipodi:docname="voltguard.svg"
   xml:space="preserve"
   width="459.59784"
   height="257.46112"
   inkscape:version="1.4 (e7c3feb1, 2024-10-09)"
   xmlns:inkscape="http://www.inkscape.org/namespaces/inkscape"
   xmlns:sodipodi="http://sodipodi.sourceforge.net/DTD/sodipodi-0.dtd"
   xmlns="http://www.w3.org/2000/svg"
   xmlns:svg="http://www.w3.org/2000/svg"><defs
     id="defs12" /><sodipodi:namedview
     id="namedview12"
     pagecolor="#ffffff"
     bordercolor="#999999"
     borderopacity="1"
     inkscape:showpageshadow="0"
     inkscape:pageopacity="0"
     inkscape:pagecheckerboard="0"
     inkscape:deskcolor="#d1d1d1"
     inkscape:zoom="0.77289468"
     inkscape:cx="215.42392"
     inkscape:cy="180.49031"
     inkscape:window-width="1440"
     inkscape:window-height="828"
     inkscape:window-x="0"
     inkscape:window-y="25"
     inkscape:window-maximized="0"
     inkscape:current-layer="svg12" /><style
     id="style1">#editor-default ._sw1{stroke-width:0.8126984126984127}#editor-default ._sw2{stroke-width:1.6253968253968254}#editor-default ._sd{stroke-dasharray:8.127 4.063}</style><g
     id="g13"
     transform="translate(-93.248686,-85.68281)"
     style="fill:#f9f9f9"><path
       text="INTELIGÊNCIA EM ENERGIA"
       fill="#000000"
       space="preserve"
       text-anchor="middle"
       offset="0.5"
       font-scale="contain"
       font-size="38px"
       font-family="'Work Sans'"
       data-fl-textpath=""
       font-style="normal"
       font-weight="400"
       letter-spacing="4"
       data-uid="o-c7a375e4f4654f35b50e793aad179b7b"
       d="m 65.498068,352.5836 v 16.31942 h -1.97812 V 352.5836 Z m 20.75195,0 v 16.31942 h -2.44791 l -6.82449,-10.92907 -1.73085,-3.21443 h -0.0247 l 0.0989,2.621 v 11.5225 h -1.8792 V 352.5836 h 2.44791 l 6.79976,10.87961 1.75557,3.26389 h 0.0247 l -0.0989,-2.621 v -11.5225 z m 19.416732,0 v 1.85448 h -5.687072 v 14.46494 h -1.97811 v -14.46494 h -5.68708 v -1.85448 z m 8.04259,14.46494 h 9.8411 v 1.85448 H 111.73122 V 352.5836 h 11.44833 v 1.85448 h -9.47021 v 5.26672 h 7.36846 v 1.85448 h -7.36846 z m 18.37822,0 h 9.34657 v 1.85448 H 130.10944 V 352.5836 h 1.97812 z m 17.38916,-14.46494 v 16.31942 h -1.97811 V 352.5836 Z m 14.22419,8.08553 h 6.99757 v 8.23389 h -1.48359 l -0.0742,-2.20065 q -0.71706,1.18687 -2.0152,1.81739 -1.29813,0.63052 -3.12789,0.63052 v 0 q -2.29955,0 -4.00567,-1.02614 -1.70613,-1.02615 -2.63337,-2.91772 -0.92724,-1.89157 -0.92724,-4.46311 v 0 q 0,-2.54682 0.95197,-4.45075 0.95197,-1.90394 2.67045,-2.93008 1.71849,-1.02615 3.99332,-1.02615 v 0 q 2.42318,0 3.99331,0.91488 1.57012,0.91488 2.53445,2.81881 v 0 l -1.80502,0.98906 q -0.54398,-1.38468 -1.76794,-2.12647 -1.22396,-0.7418 -2.9548,-0.7418 v 0 q -1.65667,0 -2.90536,0.79125 -1.24868,0.79124 -1.94102,2.26246 -0.69234,1.47122 -0.69234,3.49879 v 0 q 0,3.11552 1.43413,4.83401 1.43413,1.71848 4.12931,1.71848 v 0 q 2.12647,0 3.47406,-1.08796 1.34759,-1.08796 1.34759,-3.11552 v 0 -0.56871 h -5.19254 z m 19.93598,-12.80827 -2.12647,2.84353 h -1.80503 l 2.81881,-4.12931 h 2.22538 l 2.81881,4.12931 h -1.80503 z m -3.73369,19.18768 h 9.84111 v 1.85448 H 177.92509 V 352.5836 h 11.44832 v 1.85448 h -9.47021 v 5.26672 h 7.36847 v 1.85448 h -7.36847 z m 29.20839,-14.46494 v 16.31942 h -2.44792 l -6.82448,-10.92907 -1.73085,-3.21443 h -0.0247 l 0.0989,2.621 v 11.5225 h -1.87921 V 352.5836 h 2.44791 l 6.79976,10.87961 1.75558,3.26389 h 0.0247 l -0.0989,-2.621 v -11.5225 z m 21.09812,12.14066 q -0.76652,2.07702 -2.52209,3.25152 -1.75558,1.1745 -4.05513,1.1745 v 0 q -2.29956,0 -4.00568,-1.02614 -1.70612,-1.02615 -2.63336,-2.91772 -0.92724,-1.89157 -0.92724,-4.46311 v 0 q 0,-2.54682 0.92724,-4.45075 0.92724,-1.90394 2.63336,-2.93008 1.70612,-1.02615 3.95622,-1.02615 v 0 q 2.34901,0 3.94386,0.96433 1.59486,0.96433 2.3861,2.84354 v 0 l -1.95338,0.91488 q -0.54398,-1.43414 -1.58249,-2.1512 -1.03851,-0.71707 -2.64573,-0.71707 v 0 q -1.68139,0 -2.94244,0.77889 -1.26104,0.77888 -1.95338,2.26246 -0.69234,1.48358 -0.69234,3.51115 v 0 q 0,3.06607 1.47122,4.80928 1.47122,1.74321 4.01804,1.74321 v 0 q 1.65667,0 2.86826,-0.84069 1.21159,-0.8407 1.73085,-2.47264 v 0 z m 8.38875,-12.14066 v 16.31942 h -1.97811 V 352.5836 Z m 18.84803,16.31942 -1.73085,-4.52493 h -7.39319 l -1.73085,4.52493 h -2.07702 l 6.35468,-16.31942 h 2.34901 l 6.32996,16.31942 z m -8.40698,-6.37941 h 5.95906 l -2.20065,-5.78598 -0.76651,-2.27483 h -0.0495 l -0.71706,2.20065 z m 28.44837,4.52493 h 9.84111 v 1.85448 H 275.50977 V 352.5836 h 11.44832 v 1.85448 h -9.47021 v 5.26672 h 7.36847 v 1.85448 h -7.36847 z m 32.17555,-14.46494 v 16.31942 h -1.8792 v -10.26145 l 0.22253,-4.3024 h -0.0247 l -5.36563,14.56385 h -1.6814 l -5.36562,-14.56385 h -0.0247 l 0.22254,4.3024 v 10.26145 h -1.87921 V 352.5836 h 3.04135 l 3.58533,9.91528 1.23632,4.07986 h 0.0494 l 1.26104,-4.05513 3.56061,-9.94001 z m 20.95627,14.46494 h 9.84111 v 1.85448 H 328.64159 V 352.5836 h 11.44833 v 1.85448 h -9.47022 v 5.26672 h 7.36847 v 1.85448 h -7.36847 z m 29.20839,-14.46494 v 16.31942 h -2.44792 l -6.82448,-10.92907 -1.73085,-3.21443 h -0.0247 l 0.0989,2.621 v 11.5225 h -1.87921 V 352.5836 h 2.44792 l 6.79976,10.87961 1.75557,3.26389 h 0.0247 l -0.0989,-2.621 v -11.5225 z m 9.92179,14.46494 h 9.84111 v 1.85448 H 367.77177 V 352.5836 h 11.44832 v 1.85448 h -9.47021 v 5.26672 h 7.36847 v 1.85448 h -7.36847 z m 26.73574,1.85448 -4.45075,-6.77503 h -3.90677 v 6.77503 h -1.97811 V 352.5836 h 6.1816 q 2.49736,0 4.00567,1.28577 1.50831,1.28577 1.50831,3.48642 v 0 q 0,1.73085 -0.96433,2.91772 -0.96432,1.18686 -2.64572,1.63194 v 0 l 4.59911,6.99757 z m -8.35752,-14.46494 v 5.83543 h 4.17876 q 3.4617,0 3.4617,-2.91772 v 0 q 0,-2.91771 -3.4617,-2.91771 v 0 z m 23.19987,6.23105 h 6.99757 v 8.23389 h -1.48359 l -0.0742,-2.20065 q -0.71707,1.18687 -2.01521,1.81739 -1.29813,0.63052 -3.12789,0.63052 v 0 q -2.29955,0 -4.00567,-1.02614 -1.70612,-1.02615 -2.63336,-2.91772 -0.92724,-1.89157 -0.92724,-4.46311 v 0 q 0,-2.54682 0.95196,-4.45075 0.95197,-1.90394 2.67045,-2.93008 1.71849,-1.02615 3.99332,-1.02615 v 0 q 2.42318,0 3.99331,0.91488 1.57013,0.91488 2.53446,2.81881 v 0 l -1.80503,0.98906 q -0.54398,-1.38468 -1.76794,-2.12647 -1.22395,-0.7418 -2.9548,-0.7418 v 0 q -1.65667,0 -2.90535,0.79125 -1.24869,0.79124 -1.94103,2.26246 -0.69234,1.47122 -0.69234,3.49879 v 0 q 0,3.11552 1.43414,4.83401 1.43413,1.71848 4.1293,1.71848 v 0 q 2.12647,0 3.47406,-1.08796 1.34759,-1.08796 1.34759,-3.11552 v 0 -0.56871 h -5.19254 z m 16.20229,-8.08553 v 16.31942 h -1.97811 V 352.5836 Z m 18.84803,16.31942 -1.73085,-4.52493 h -7.39319 l -1.73085,4.52493 h -2.07702 l 6.35469,-16.31942 h 2.349 l 6.32996,16.31942 z m -8.40698,-6.37941 h 5.95906 l -2.20065,-5.78598 -0.76651,-2.27483 h -0.0495 l -0.71706,2.20065 z"
       id="path5"
       style="stroke-width:0.650695;fill:#f9f9f9" /></g><g
     id="g12"
     transform="translate(-93.248697,-85.68281)"
     style="fill:#f9f9f9"><path
       text="oltGuard"
       fill="#0c0f27"
       space="preserve"
       text-anchor="middle"
       offset="0.5"
       font-scale="contain"
       font-size="42px"
       font-family="'Work Sans'"
       data-fl-textpath=""
       font-style="italic"
       font-weight="700"
       data-uid="o-af053a5c46d24e0f900d725db052e956"
       d="m 99.653018,329.43852 v 0 q -7.13173,0 -12.33977,-2.81516 -5.20805,-2.81516 -8.0232,-7.64785 -2.81516,-4.83269 -2.81516,-10.83836 v 0 q 0,-7.60093 3.14359,-13.84119 3.14359,-6.24027 9.10235,-9.9469 5.95875,-3.70662 14.498062,-3.70662 v 0 q 7.22558,0 12.3867,2.81516 5.16112,2.81515 7.97628,7.60092 2.81516,4.78577 2.81516,10.88528 v 0 q 0,7.50709 -3.14359,13.79428 -3.1436,6.28719 -9.10235,9.99381 -5.95875,3.70663 -14.498072,3.70663 z m 0.18768,-11.26064 v 0 q 2.439812,0 4.457342,-1.54833 2.01753,-1.54834 3.47202,-4.17582 1.4545,-2.62748 2.20521,-5.67724 0.75071,-3.04975 0.75071,-6.14643 v 0 q 0,-2.72132 -0.89147,-4.64501 -0.89146,-1.92369 -2.62748,-3.00284 -1.73601,-1.07914 -4.26965,-1.07914 v 0 q -2.34597,0 -4.363502,1.54834 -2.01753,1.54834 -3.47203,4.1289 -1.4545,2.58056 -2.25213,5.67723 -0.79762,3.09668 -0.79762,6.19335 v 0 q 0,2.62748 0.89146,4.59809 0.89147,1.97061 2.6744,3.04976 1.78294,1.07914 4.22274,1.07914 z m 46.825472,11.1668 v 0 q -8.44548,0 -11.87058,-4.64501 -3.42511,-4.64502 -1.54834,-12.43362 v 0 l 11.72983,-50.57901 h 15.95256 l -11.63599,50.39133 q -0.84455,3.09668 0.28152,4.64501 1.12606,1.54834 4.1289,1.54834 v 0 q 1.12606,0 1.97061,-0.0938 0.84454,-0.0938 1.40758,-0.28151 v 0 l -2.81516,10.32224 q -1.50142,0.65687 -3.28435,0.89147 -1.78294,0.2346 -4.31658,0.2346 z m 37.72312,0 v 0 q -5.81799,0 -9.85305,-2.01753 -4.03506,-2.01753 -5.63032,-6.05259 -1.59525,-4.03506 -0.28151,-9.9469 v 0 l 9.10234,-39.88141 17.07863,-4.50425 -10.22841,44.01031 q -0.93839,3.65971 0.89147,5.48956 1.82985,1.82985 5.39572,1.82985 v 0 q 2.15829,0 3.51895,-0.37535 1.36065,-0.37536 2.39288,-0.93839 v 0 l -0.93839,10.22841 q -2.53364,1.2199 -5.44264,1.68909 -2.90899,0.4692 -6.00567,0.4692 z m 17.17247,-36.40938 h -37.44161 l 2.62748,-11.35448 h 37.44161 z m 29.93452,36.40938 v 0 q -6.94406,0 -12.52746,-3.23743 -5.5834,-3.23744 -8.86775,-9.24311 -3.28435,-6.00567 -3.28435,-14.35731 v 0 q 0,-7.50708 2.25213,-14.12271 2.25212,-6.61562 6.5687,-11.77674 4.31658,-5.16113 10.65068,-8.07012 6.33411,-2.909 14.59191,-2.909 v 0 q 6.85022,0 12.33978,2.20521 5.48955,2.2052 9.10234,6.52178 3.61279,4.31658 4.55117,10.60376 v 0 l -15.20185,2.909 q -0.65687,-4.69193 -3.47203,-7.13173 -2.81516,-2.43981 -7.69477,-2.43981 v 0 q -3.94122,0 -7.17865,1.78294 -3.23743,1.78293 -5.53648,4.97344 -2.29904,3.19051 -3.51895,7.36633 -1.2199,4.17582 -1.2199,8.86775 v 0 q 0,4.87961 1.50142,8.44548 1.50142,3.56586 4.50425,5.48956 3.00284,1.92369 7.50709,1.92369 v 0 q 3.56587,0 6.19335,-1.12607 2.62748,-1.12606 4.31658,-3.14359 1.68909,-2.01753 2.53364,-4.64501 v 0 l 0.75071,-2.06445 h -14.8265 l 2.4398,-10.6976 h 27.58855 l -8.25779,33.03119 h -10.69761 l 3.09668,-14.54499 1.40758,1.50142 q -1.6891,4.50426 -4.31658,7.60093 -2.62748,3.09667 -6.38103,4.69193 -3.75354,1.59526 -8.91466,1.59526 z m 54.05104,0 v 0 q -4.97345,0 -8.44548,-2.15829 -3.47203,-2.15829 -4.92652,-6.14643 -1.4545,-3.98814 -0.2346,-9.52462 v 0 l 7.0379,-29.93452 h 15.95256 l -6.38103,27.58856 q -0.93838,3.84738 0.70379,5.91183 1.64218,2.06445 4.92653,2.06445 v 0 q 2.53364,0 4.41042,-1.17298 1.87677,-1.17299 3.14359,-3.47203 1.26682,-2.29905 2.01753,-5.5834 v 0 l 5.91183,-25.33643 h 15.95257 l -10.88528,46.91931 H 300.5615 l 2.34596,-14.92034 0.84455,1.40758 q -1.97061,6.94406 -6.8033,10.65068 -4.83269,3.70663 -11.40139,3.70663 z m 59.306,0 v 0 q -4.69193,0 -8.39855,-2.20521 -3.70663,-2.20521 -5.818,-6.38103 -2.11137,-4.17581 -2.11137,-10.27532 v 0 q 0,-5.63032 1.59526,-10.97912 1.59526,-5.3488 4.64501,-9.61846 3.04976,-4.26966 7.31941,-6.75638 4.26966,-2.48672 9.61846,-2.48672 v 0 q 3.09667,0 5.95875,1.12606 2.86208,1.12606 4.87961,3.47203 2.01753,2.34596 2.76824,6.19335 v 0 l 2.25213,-9.85306 h 15.95256 l -10.88528,46.91931 H 358.1784 l 1.59526,-8.82083 q -2.25213,4.50425 -6.19335,7.08482 -3.94122,2.58056 -8.72699,2.58056 z m 6.94406,-11.63599 v 0 q 2.34596,0 4.31658,-1.50142 1.97061,-1.50142 3.4251,-3.98814 1.4545,-2.48672 2.25213,-5.44264 0.79763,-2.95592 0.79763,-5.86491 v 0 q 0,-2.62748 -0.89147,-4.55118 -0.89146,-1.92369 -2.48672,-2.95591 -1.59526,-1.03223 -3.84738,-1.03223 v 0 q -2.62748,0 -4.69193,1.54834 -2.06445,1.54834 -3.47203,3.98814 -1.40758,2.43981 -2.15829,5.30188 -0.75071,2.86208 -0.75071,5.48956 v 0 q 0,2.81516 0.84455,4.83269 0.84455,2.01753 2.48672,3.09668 1.64218,1.07914 4.17582,1.07914 z m 47.76385,10.79144 h -15.95256 l 10.88528,-46.91931 h 14.16963 l -2.909,17.07863 -0.65687,-1.59526 q 1.50142,-4.97344 3.94122,-8.63315 2.43981,-3.6597 6.00567,-5.72415 3.56587,-2.06445 8.07013,-2.06445 v 0 q 1.59525,0 2.6744,0.23459 1.07914,0.2346 1.82985,0.60995 v 0 l -3.84738,13.41893 q -0.93839,-0.4692 -2.20521,-0.70379 -1.26682,-0.2346 -3.23743,-0.2346 v 0 q -2.909,0 -5.67724,1.26682 -2.76824,1.26682 -4.83269,4.08198 -2.06445,2.81516 -3.19051,7.50709 v 0 z m 42.97809,0.84455 v 0 q -4.69193,0 -8.39856,-2.20521 -3.70662,-2.20521 -5.81799,-6.38103 -2.11137,-4.17581 -2.11137,-10.27532 v 0 q 0,-5.63032 1.59526,-10.97912 1.59525,-5.3488 4.64501,-9.61846 3.04975,-4.26966 7.31941,-6.75638 4.26966,-2.48672 9.61846,-2.48672 v 0 q 3.09667,0 5.95875,1.12606 2.86208,1.12606 4.87961,3.47203 2.01753,2.34596 2.76824,6.19335 v 0 l 6.85021,-29.74684 h 15.95257 l -15.48337,66.81309 H 455.8644 l 1.59526,-8.82083 q -2.25213,4.50425 -6.19335,7.08482 -3.94122,2.58056 -8.72699,2.58056 z m 6.94406,-11.63599 v 0 q 2.34596,0 4.31657,-1.50142 1.97061,-1.50142 3.42511,-3.98814 1.4545,-2.48672 2.25213,-5.44264 0.79763,-2.95592 0.79763,-5.86491 v 0 q 0,-2.62748 -0.89147,-4.55118 -0.89147,-1.92369 -2.48672,-2.95591 -1.59526,-1.03223 -3.84739,-1.03223 v 0 q -2.62748,0 -4.69193,1.54834 -2.06445,1.54834 -3.47203,3.98814 -1.40758,2.43981 -2.15828,5.30188 -0.75071,2.86208 -0.75071,5.48956 v 0 q 0,2.81516 0.84454,4.83269 0.84455,2.01753 2.48673,3.09668 1.64217,1.07914 4.17582,1.07914 z"
       id="path4"
       style="stroke-width:2.23425;fill:#f9f9f9" /><path
       text="V"
       fill="#0c0f27"
       space="preserve"
       text-anchor="middle"
       offset="0.5"
       font-scale="contain"
       font-size="42px"
       font-family="'Work Sans'"
       data-fl-textpath=""
       font-style="italic"
       font-weight="700"
       data-uid="o-01a6ef488bcf4c5081eabceb2c5fcc0f"
       d="m 71.149778,267.50503 h 16.51559 l -35.65867,61.93348 h -18.9554 l -6.85022,-61.93348 h 15.38953 l 2.81516,37.06625 0.56303,12.19902 5.63032,-12.10518 z"
       id="path6"
       style="stroke-width:2.23425;fill:#f9f9f9" /></g><path
     class="st1"
     d="m 112.57793,103.00103 c -0.53542,-0.96248 -0.64251,-3.368691 1.60626,-5.774899 L 170.9388,36.108454 c 0.74959,-0.756237 1.39209,-1.237478 1.82043,-1.512474 0.21417,0.481242 0.32125,1.374976 -0.10709,2.681203 l -15.63428,50.599112 14.34927,-3.712435 13.92094,-45.305454 c 2.0346,-6.737382 -2.46293,-11.068556 -7.92422,-12.374783 -4.81879,-1.16873 -12.31468,-0.481242 -17.66889,5.362406 l -56.75461,61.117677 c -4.390446,4.674918 -4.925867,10.449814 -1.49917,14.368494 2.24876,2.54371 5.99671,3.98743 10.28008,3.98743 h 27.84188 l 2.99835,-8.3186 z"
     fill="#ffab11"
     data-uid="o-52325076d28c41df9a2da371d6c0f3d3"
     id="path1"
     style="stroke-width:0.858016" /><path
     class="st2"
     d="m 224.05254,74.745276 c -2.24877,-2.543706 -5.99671,-3.98743 -10.28008,-3.98743 h -27.19938 l -2.78418,8.043608 29.23397,0.274996 c 0.53542,0.962483 0.64251,3.36869 -1.60626,5.774898 L 154.662,145.96903 c -0.74959,0.75623 -1.39209,1.23747 -1.82043,1.51247 -0.21417,-0.48124 -0.32125,-1.37498 0.10709,-2.6812 l 15.74137,-51.011609 -14.34928,3.712435 -14.02802,45.649194 c -2.0346,6.73739 2.46293,11.06856 7.92422,12.37479 1.17793,0.27499 2.67711,0.48124 4.17629,0.48124 4.39045,0 9.53049,-1.51247 13.4926,-5.84365 l 56.75461,-61.117675 c 4.28336,-4.674918 4.81878,-10.449817 1.39209,-14.299749 z"
     fill="#0c0f27"
     data-uid="o-c9f98c0cac8845a4a6b89f4177d950e4"
     id="path2-7"
     style="stroke-width:0.858016;fill:#f9f9f9" /></svg>
